Coordinates
version=1
nRows=19
nColumns=24
inDegrees=yes

Units are S.I. units (second, meters, Newtons, ...)
Angles are in degrees.

endheader
time	pelvis_tilt	pelvis_list	pelvis_rotation	pelvis_tx	pelvis_ty	pelvis_tz	hip_flexion_r	hip_adduction_r	hip_rotation_r	knee_angle_r	ankle_angle_r	subtalar_angle_r	mtp_angle_r	hip_flexion_l	hip_adduction_l	hip_rotation_l	knee_angle_l	ankle_angle_l	subtalar_angle_l	mtp_angle_l	lumbar_extension	lumbar_bending	lumbar_rotation
      1.09150000	     -0.13441827	      2.00635256	     -2.82150734	      0.35837476	      1.08056236	      0.32108901	     11.60440185	     -5.83373304	     -6.58789650	    -67.43748026	     -0.30439204	     -7.27570908	      6.76222931	      9.56226681	      4.38536628	      1.58277650	    -18.12242055	      9.20386266	     -0.02543305	      1.80575254	    -15.81055650	     -3.60957889	     -0.99946774
      1.09566667	     -0.09994603	      1.83861542	     -2.76098099	      0.36368954	      1.08167199	      0.32081840	     12.08832327	     -5.65513275	     -6.72772954	    -67.19541213	      0.08432605	     -7.14792736	      6.76336236	      8.99397421	      4.22838119	      1.64940580	    -17.69149327	      9.23816587	      0.04769702	      1.80776601	    -15.85962489	     -3.36079182	     -1.15315052
      1.09983333	     -0.08768991	      1.69193215	     -2.69331114	      0.36901943	      1.08268856	      0.32054857	     12.58938028	     -5.50093462	     -6.87356075	    -66.91513174	      0.48917655	     -6.94219364	      6.77108869	      8.44894563	      4.09405439	      1.72958202	    -17.25607855	      9.27569262	      0.10172923	      1.81030979	    -15.86642799	     -3.14277396	     -1.33527894
      1.10400000	     -0.03849530	      1.53173274	     -2.61704871	      0.37430993	      1.08374214	      0.32027042	     13.03582455	     -5.32974467	     -7.02839978	    -66.57320844	      0.89957160	     -6.70585666	      6.78590872	      7.86653444	      3.94521313	      1.81076777	    -16.81933782	      9.30309869	      0.16060681	      1.81284637	    -15.92937362	     -2.89770547	     -1.49499144
      1.10816667	     -0.02071330	      1.37394495	     -2.53339924	      0.37960813	      1.08469581	      0.31998311	     13.50709129	     -5.15973718	     -7.18902080	    -66.18735666	      1.31205763	     -6.43309785	      6.80805146	      7.32055659	      3.79708471	      1.90257326	    -16.38602542	      9.33096092	      0.21590974	      1.81549535	    -15.95406726	     -2.65236195	     -1.65705088
      1.11233333	     -0.00237200	      1.22799161	     -2.44729235	      0.38489653	      1.08559786	      0.31970267	     13.97040287	     -5.00250822	     -7.35184255	    -65.75957966	      1.73270196	     -6.11649836	      6.83764259	      6.77561272	      3.66072025	      1.99695074	    -15.95018103	      9.35205038	      0.26048429	      1.81806073	    -15.97903969	     -2.42050351	     -1.82493855
      1.11650000	      0.02769913	      1.08143637	     -2.35477630	      0.39016806	      1.08646880	      0.31942704	     14.40981516	     -4.84250418	     -7.51981239	    -65.28483546	      2.16284138	     -5.79375170	      6.88216119	      6.21970128	      3.52271608	      2.09965266	    -15.51336266	      9.35264046	      0.29364266	      1.82132898	    -16.02187417	     -2.18654241	     -2.02615359
      1.12066667	      0.06293328	      0.92520413	     -2.25366295	      0.39543403	      1.08731369	      0.31912606	     14.82873677	     -4.67440043	     -7.70107345	    -64.75420741	      2.56820181	     -5.42783995	      6.92339056	      5.66429250	      3.37348954	      2.19907009	    -15.08786414	      9.39348101	      0.34678222	      1.82491921	    -16.06655505	     -1.93424544	     -2.16818308
      1.12483333	      0.09855701	      0.77734891	     -2.15364497	      0.40068505	      1.08810655	      0.31885730	     15.23947344	     -4.51067151	     -7.87560483	    -64.18260970	      2.97761445	     -5.04732688	      6.96608538	      5.11176582	      3.22916453	      2.29794605	    -14.66503386	      9.41892162	      0.39274395	      1.82759871	    -16.12124537	     -1.70317845	     -2.32090662
      1.12900000	      0.11142154	      0.64667759	     -2.05003048	      0.40594712	      1.08878684	      0.31857823	     15.66954805	     -4.36878871	     -8.05639510	    -63.58180454	      3.39247425	     -4.65651341	      7.02007912	      4.58363276	      3.10378772	      2.40617210	    -14.23802742	      9.44266298	      0.42002684	      1.83093737	    -16.13517883	     -1.47604447	     -2.51008475
      1.13316667	      0.11098522	      0.52286677	     -1.94737558	      0.41120245	      1.08939695	      0.31832024	     16.10610328	     -4.22899126	     -8.23024755	    -62.94126286	      3.80314944	     -4.27706362	      7.09113545	      4.07422449	      2.98289815	      2.51792304	    -13.81649752	      9.44234965	      0.42746014	      1.83514687	    -16.14222113	     -1.26430312	     -2.71270154
      1.13733333	      0.14653241	      0.39085425	     -1.84120481	      0.41643509	      1.09001587	      0.31805566	     16.48906193	     -4.08244859	     -8.41167155	    -62.24857724	      4.18049031	     -3.87257765	      7.14559265	      3.53199114	      2.85125451	      2.61293968	    -13.40554554	      9.49362818	      0.46909849	      1.83914887	    -16.18817590	     -1.03890227	     -2.84367168
      1.14150000	      0.13737533	      0.28248430	     -1.74100764	      0.42167557	      1.09048828	      0.31781961	     16.91910158	     -3.95732930	     -8.58128810	    -61.53299439	      4.57069079	     -3.46842745	      7.20583566	      3.04198621	      2.74275961	      2.71373063	    -13.00177075	      9.52360458	      0.48851430	      1.84281833	    -16.17943097	     -0.84480819	     -3.01087926
      1.14566667	      0.15726906	      0.17475152	     -1.64053012	      0.42689200	      1.09094513	      0.31759080	     17.30670741	     -3.83291691	     -8.75063552	    -60.77758730	      4.94902995	     -3.07902650	      7.27417752	      2.52354897	      2.63345709	      2.81255647	    -12.60061083	      9.55358435	      0.50642294	      1.84747527	    -16.21571329	     -0.65137126	     -3.18901970
      1.14983333	      0.14249251	      0.04681309	     -1.54046098	      0.43211752	      1.09131929	      0.31738292	     17.71370512	     -3.67478228	     -8.91273091	    -59.96207348	      5.28884002	     -2.73488951	      7.32062724	      2.05602858	      2.49559543	      2.87981920	    -12.22761790	      9.58368446	      0.54705186	      1.85057961	    -16.20547124	     -0.44350485	     -3.29543755
      1.15400000	      0.13362820	     -0.04531913	     -1.44534558	      0.43733727	      1.09161580	      0.31718375	     18.11383251	     -3.56097454	     -9.06834254	    -59.13360406	      5.64582264	     -2.35622851	      7.37242572	      1.57934690	      2.39786529	      2.96046534	    -11.84670937	      9.62904668	      0.57904425	      1.85468179	    -16.20332760	     -0.26951543	     -3.44596078
      1.15816667	      0.13320182	     -0.11058640	     -1.35607947	      0.44253590	      1.09184348	      0.31699912	     18.50411318	     -3.48017217	     -9.22148296	    -58.28766534	      5.99723524	     -1.97068998	      7.44783710	      1.08772464	      2.33062799	      3.06400670	    -11.44944474	      9.68543017	      0.57698453	      1.86141426	    -16.20966328	     -0.11562169	     -3.65653238
      1.16233333	      0.11916930	     -0.19524325	     -1.26731947	      0.44774118	      1.09201669	      0.31683388	     18.88908796	     -3.36765234	     -9.36376073	    -57.38376862	      6.31572691	     -1.63608667	      7.51919624	      0.62315605	      2.23726985	      3.14450186	    -11.07983270	      9.73541623	      0.59259540	      1.86822457	    -16.20206129	      0.04869065	     -3.80498041
      1.16650000	      0.10725226	     -0.26879143	     -1.18614884	      0.45293540	      1.09213520	      0.31669512	     19.26281004	     -3.26301883	     -9.49439713	    -56.44593986	      6.62298877	     -1.31549480	      7.58905272	      0.15996993	      2.15349077	      3.21308585	    -10.71677553	      9.79011812	      0.61369474	      1.87558405	    -16.19897082	      0.19624840	     -3.94598098
